<svg width="175" height="74" viewBox="0 0 175 74" fill="none" xmlns="http://www.w3.org/2000/svg">
<path d="M130.181 54.0604H169.526V63.8583H130.181V54.0604Z" fill="#179F35"/>
<path d="M99.1328 54.0604H125.648V63.8583H99.1328V54.0604Z" fill="#CC0B17"/>
<path d="M60.5576 54.0604H99.1329V63.8583H60.5576V54.0604Z" fill="#F29000"/>
<path d="M8.46777 54.0604H53.9712V63.8583H8.46777V54.0604Z" fill="#E31C0A"/>
<path d="M53.9717 54.0604H60.5577V63.8583H53.9717V54.0604Z" fill="#1F1B17"/>
<path d="M125.647 54.0604H130.181V63.8583H125.647V54.0604Z" fill="#0077BC"/>
<path d="M29.4233 31.5424C27.456 33.1754 24.8045 34.0348 21.3832 34.0348C20.1002 34.0348 18.5606 33.8629 17.7053 33.691V43.2311H11.2904V14.6109H8.46777V10.0557H15.1393L16.4223 13.1498C17.9619 10.9152 20.5279 9.62599 23.6071 9.62599C30.1931 9.62599 33.1012 14.353 33.1012 21.4866C33.1012 25.698 32.0748 29.3078 29.4233 31.5424ZM21.9819 14.353C20.6134 14.353 19.416 14.8687 18.6462 15.986C17.9619 16.9314 17.7053 18.2206 17.7053 20.0255V29.4796C18.6462 29.7375 19.7581 29.9094 20.87 29.9094C25.3177 29.9094 26.6862 26.8153 26.6862 21.7445C26.6007 16.8455 25.1467 14.353 21.9819 14.353ZM59.7019 32.6597C58.761 33.3472 57.1359 33.8629 55.4252 33.8629C53.458 33.8629 51.8329 33.0035 51.3197 31.3705C50.0367 33.0035 47.6418 33.9489 44.9902 33.9489C40.0294 33.9489 36.6936 31.1986 36.6936 26.1277C36.6936 20.885 40.3715 18.2206 45.8456 18.2206C47.5562 18.2206 49.3524 18.5644 50.5499 18.9942V18.3925C50.5499 16.8455 50.3788 15.9001 49.609 15.0406C48.9248 14.1812 47.5562 13.7514 45.6745 13.7514C43.4507 13.7514 40.9702 14.353 38.6608 15.4704V11.173C40.8847 10.1417 43.7928 9.62599 46.7009 9.62599C50.3788 9.62599 53.0303 10.3995 54.8265 12.1184C56.2806 13.4936 56.8793 15.3844 56.8793 18.1347V28.1904C56.8793 29.2218 57.2214 29.6515 57.9912 29.6515C58.59 29.6515 59.4453 29.3078 59.8729 29.0499L59.7019 32.6597ZM50.4643 22.518C49.7801 22.2601 48.326 21.9163 47.1286 21.9163C44.306 21.9163 43.023 23.6353 43.023 25.8699C43.023 28.4483 44.4771 29.8234 46.7009 29.8234C47.8984 29.8234 48.8392 29.3937 49.5235 28.7061C50.1222 28.0186 50.4643 26.9872 50.4643 25.7839V22.518ZM84.5064 32.6597C84.5064 36.6992 83.9076 38.9338 82.2825 40.7387C80.4863 42.8014 77.4927 43.8327 73.6437 43.8327C70.479 43.8327 66.9722 42.9733 64.6628 41.77L65.0904 37.0429C67.3143 38.4181 70.2224 39.1916 72.7884 39.1916C74.499 39.1916 75.9531 38.7619 76.8084 37.9024C77.7493 36.957 78.0914 35.4959 78.0914 33.2613V31.9721C76.6374 33.1754 74.499 33.9489 72.1041 33.9489C69.3671 33.9489 67.1432 33.1754 65.6892 31.7143C64.2351 30.0813 63.6364 28.1045 63.6364 25.4402V10.0557H70.0513V24.4088C70.0513 25.9558 70.2224 26.9872 70.8211 27.8467C71.4199 28.7061 72.4463 29.1359 73.9003 29.1359C75.4399 29.1359 76.4663 28.5342 77.1506 27.6748C77.9203 26.6434 78.0914 25.3542 78.0914 23.5493V10.0557H84.5064V32.6597ZM110.337 33.5191H106.659V18.9082C106.659 16.5017 106.488 15.2125 105.462 14.0093C104.607 13.0638 103.238 12.5482 101.442 12.5482C99.3891 12.5482 97.935 13.1498 96.9086 14.353C95.7967 15.6422 95.4546 17.1893 95.4546 19.9396V33.5191H91.7767V12.806H88.9541V10.0557H94.086L94.6848 12.892C96.1388 10.7433 98.5337 9.62599 101.955 9.62599C104.692 9.62599 107.087 10.5714 108.456 12.1184C109.91 13.7514 110.252 15.9001 110.252 18.4785V33.5191H110.337ZM126.161 33.9489C119.831 33.9489 115.897 29.5656 115.897 21.7445C115.897 13.9233 119.831 9.54004 126.161 9.54004C132.49 9.54004 136.425 13.9233 136.425 21.7445C136.425 29.6515 132.405 33.9489 126.161 33.9489ZM126.161 12.2903C122.141 12.2903 119.66 15.2125 119.66 21.8304C119.66 28.4483 122.141 31.2845 126.161 31.2845C130.181 31.2845 132.661 28.3623 132.661 21.8304C132.661 15.2985 130.181 12.2903 126.161 12.2903ZM169.44 10.0557L162.085 33.5191H159.091L154.472 19.3379L149.768 33.5191H146.86L138.905 10.0557H142.669L147.458 25.0104C147.886 26.2996 148.314 27.9326 148.57 29.2218C148.741 28.0186 149.169 26.3856 149.768 24.8385L153.018 14.9547L151.393 9.96977H154.985L159.69 24.9245C160.117 26.2996 160.545 28.0186 160.716 29.2218C160.973 27.8467 161.315 26.0418 161.742 24.8385L166.19 9.96977H169.44V10.0557Z" fill="#11142D"/>
<g opacity="0.6">
<path opacity="0.6" d="M130.181 54.0604H169.526V63.8583H130.181V54.0604Z" fill="#179F35"/>
<path opacity="0.6" d="M99.1328 54.0604H125.648V63.8583H99.1328V54.0604Z" fill="#CC0B17"/>
<path opacity="0.6" d="M60.5576 54.0604H99.1329V63.8583H60.5576V54.0604Z" fill="#F29000"/>
<path opacity="0.6" d="M8.46777 54.0604H53.9712V63.8583H8.46777V54.0604Z" fill="#E31C0A"/>
<path opacity="0.6" d="M53.9707 54.0604H60.5567V63.8583H53.9707V54.0604Z" fill="#1F1B17"/>
<path opacity="0.6" d="M125.647 54.0604H130.181V63.8583H125.647V54.0604Z" fill="#0077BC"/>
</g>
<g opacity="0.6">
<path opacity="0.6" d="M29.4233 31.5424C27.456 33.1754 24.8045 34.0348 21.3832 34.0348C20.1002 34.0348 18.5606 33.8629 17.7053 33.691V43.2311H11.2904V14.6109H8.46777V10.0557H15.1393L16.4223 13.1498C17.9619 10.9152 20.5279 9.62599 23.6071 9.62599C30.1931 9.62599 33.1012 14.353 33.1012 21.4866C33.1012 25.698 32.0748 29.3078 29.4233 31.5424ZM21.9819 14.353C20.6134 14.353 19.416 14.8687 18.6462 15.986C17.9619 16.9314 17.7053 18.2206 17.7053 20.0255V29.4796C18.6462 29.7375 19.7581 29.9094 20.87 29.9094C25.3177 29.9094 26.6862 26.8153 26.6862 21.7445C26.6007 16.8455 25.1467 14.353 21.9819 14.353ZM59.7019 32.6597C58.761 33.3472 57.1359 33.8629 55.4252 33.8629C53.458 33.8629 51.8329 33.0035 51.3197 31.3705C50.0367 33.0035 47.6418 33.9489 44.9902 33.9489C40.0294 33.9489 36.6936 31.1986 36.6936 26.1277C36.6936 20.885 40.3715 18.2206 45.8456 18.2206C47.5562 18.2206 49.3524 18.5644 50.5499 18.9942V18.3925C50.5499 16.8455 50.3788 15.9001 49.609 15.0406C48.9248 14.1812 47.5562 13.7514 45.6745 13.7514C43.4507 13.7514 40.9702 14.353 38.6608 15.4704V11.173C40.8847 10.1417 43.7928 9.62599 46.7009 9.62599C50.3788 9.62599 53.0303 10.3995 54.8265 12.1184C56.2806 13.4936 56.8793 15.3844 56.8793 18.1347V28.1904C56.8793 29.2218 57.2214 29.6515 57.9912 29.6515C58.59 29.6515 59.4453 29.3078 59.8729 29.0499L59.7019 32.6597ZM50.4643 22.518C49.7801 22.2601 48.326 21.9163 47.1286 21.9163C44.306 21.9163 43.023 23.6353 43.023 25.8699C43.023 28.4483 44.4771 29.8234 46.7009 29.8234C47.8984 29.8234 48.8392 29.3937 49.5235 28.7061C50.1222 28.0186 50.4643 26.9872 50.4643 25.7839V22.518ZM84.5064 32.6597C84.5064 36.6992 83.9076 38.9338 82.2825 40.7387C80.4863 42.8014 77.4927 43.8327 73.6437 43.8327C70.479 43.8327 66.9722 42.9733 64.6628 41.77L65.0904 37.0429C67.3143 38.4181 70.2224 39.1916 72.7884 39.1916C74.499 39.1916 75.9531 38.7619 76.8084 37.9024C77.7493 36.957 78.0914 35.4959 78.0914 33.2613V31.9721C76.6374 33.1754 74.499 33.9489 72.1041 33.9489C69.3671 33.9489 67.1432 33.1754 65.6892 31.7143C64.2351 30.0813 63.6364 28.1045 63.6364 25.4402V10.0557H70.0513V24.4088C70.0513 25.9558 70.2224 26.9872 70.8211 27.8467C71.4199 28.7061 72.4463 29.1359 73.9003 29.1359C75.4399 29.1359 76.4663 28.5342 77.1506 27.6748C77.9203 26.6434 78.0914 25.3542 78.0914 23.5493V10.0557H84.5064V32.6597ZM110.337 33.5191H106.659V18.9082C106.659 16.5017 106.488 15.2125 105.462 14.0093C104.607 13.0638 103.238 12.5482 101.442 12.5482C99.3891 12.5482 97.935 13.1498 96.9086 14.353C95.7967 15.6422 95.4546 17.1893 95.4546 19.9396V33.5191H91.7767V12.806H88.9541V10.0557H94.086L94.6848 12.892C96.1388 10.7433 98.5337 9.62599 101.955 9.62599C104.692 9.62599 107.087 10.5714 108.456 12.1184C109.91 13.7514 110.252 15.9001 110.252 18.4785V33.5191H110.337ZM126.161 33.9489C119.831 33.9489 115.897 29.5656 115.897 21.7445C115.897 13.9233 119.831 9.54004 126.161 9.54004C132.49 9.54004 136.425 13.9233 136.425 21.7445C136.425 29.6515 132.405 33.9489 126.161 33.9489ZM126.161 12.2903C122.141 12.2903 119.66 15.2125 119.66 21.8304C119.66 28.4483 122.141 31.2845 126.161 31.2845C130.181 31.2845 132.661 28.3623 132.661 21.8304C132.661 15.2985 130.181 12.2903 126.161 12.2903ZM169.44 10.0557L162.085 33.5191H159.091L154.472 19.3379L149.768 33.5191H146.86L138.905 10.0557H142.669L147.458 25.0104C147.886 26.2996 148.314 27.9326 148.57 29.2218C148.741 28.0186 149.169 26.3856 149.768 24.8385L153.018 14.9547L151.393 9.96977H154.985L159.69 24.9245C160.117 26.2996 160.545 28.0186 160.716 29.2218C160.973 27.8467 161.315 26.0418 161.742 24.8385L166.19 9.96977H169.44V10.0557Z" fill="#11142D"/>
</g>
</svg>
