<svg width="205" height="87" viewBox="0 0 205 87" fill="none" xmlns="http://www.w3.org/2000/svg">
<path d="M152.2 62.9H198.2V74.3H152.2V62.9Z" fill="#179F35"/>
<path d="M115.9 62.9H146.9V74.3H115.9V62.9Z" fill="#CC0B17"/>
<path d="M70.7998 62.9H115.9V74.3H70.7998V62.9Z" fill="#F29000"/>
<path d="M9.8999 62.9H63.0999V74.3H9.8999V62.9Z" fill="#E31C0A"/>
<path d="M63.1001 62.9H70.8001V74.3H63.1001V62.9Z" fill="#1F1B17"/>
<path d="M146.9 62.9H152.2V74.3H146.9V62.9Z" fill="#0077BC"/>
<path d="M34.3999 36.7C32.0999 38.6 28.9999 39.6 24.9999 39.6C23.4999 39.6 21.6999 39.4 20.6999 39.2V50.3H13.1999V17H9.8999V11.7H17.6999L19.1999 15.3C20.9999 12.7 23.9999 11.2 27.5999 11.2C35.2999 11.2 38.6999 16.7 38.6999 25C38.6999 29.9 37.4999 34.1 34.3999 36.7ZM25.6999 16.7C24.0999 16.7 22.6999 17.3 21.7999 18.6C20.9999 19.7 20.6999 21.2 20.6999 23.3V34.3C21.7999 34.6 23.0999 34.8 24.3999 34.8C29.5999 34.8 31.1999 31.2 31.1999 25.3C31.0999 19.6 29.3999 16.7 25.6999 16.7ZM69.7999 38C68.6999 38.8 66.7999 39.4 64.7999 39.4C62.4999 39.4 60.5999 38.4 59.9999 36.5C58.4999 38.4 55.6999 39.5 52.5999 39.5C46.7999 39.5 42.8999 36.3 42.8999 30.4C42.8999 24.3 47.1999 21.2 53.5999 21.2C55.5999 21.2 57.6999 21.6 59.0999 22.1V21.4C59.0999 19.6 58.8999 18.5 57.9999 17.5C57.1999 16.5 55.5999 16 53.3999 16C50.7999 16 47.8999 16.7 45.1999 18V13C47.7999 11.8 51.1999 11.2 54.5999 11.2C58.8999 11.2 61.9999 12.1 64.0999 14.1C65.7999 15.7 66.4999 17.9 66.4999 21.1V32.8C66.4999 34 66.8999 34.5 67.7999 34.5C68.4999 34.5 69.4999 34.1 69.9999 33.8L69.7999 38ZM58.9999 26.2C58.1999 25.9 56.4999 25.5 55.0999 25.5C51.7999 25.5 50.2999 27.5 50.2999 30.1C50.2999 33.1 51.9999 34.7 54.5999 34.7C55.9999 34.7 57.0999 34.2 57.8999 33.4C58.5999 32.6 58.9999 31.4 58.9999 30V26.2ZM98.7999 38C98.7999 42.7 98.0999 45.3 96.1999 47.4C94.0999 49.8 90.5999 51 86.0999 51C82.3999 51 78.2999 50 75.5999 48.6L76.0999 43.1C78.6999 44.7 82.0999 45.6 85.0999 45.6C87.0999 45.6 88.7999 45.1 89.7999 44.1C90.8999 43 91.2999 41.3 91.2999 38.7V37.2C89.5999 38.6 87.0999 39.5 84.2999 39.5C81.0999 39.5 78.4999 38.6 76.7999 36.9C75.0999 35 74.3999 32.7 74.3999 29.6V11.7H81.8999V28.4C81.8999 30.2 82.0999 31.4 82.7999 32.4C83.4999 33.4 84.6999 33.9 86.3999 33.9C88.1999 33.9 89.3999 33.2 90.1999 32.2C91.0999 31 91.2999 29.5 91.2999 27.4V11.7H98.7999V38ZM129 39H124.7V22C124.7 19.2 124.5 17.7 123.3 16.3C122.3 15.2 120.7 14.6 118.6 14.6C116.2 14.6 114.5 15.3 113.3 16.7C112 18.2 111.6 20 111.6 23.2V39H107.3V14.9H104V11.7H110L110.7 15C112.4 12.5 115.2 11.2 119.2 11.2C122.4 11.2 125.2 12.3 126.8 14.1C128.5 16 128.9 18.5 128.9 21.5V39H129ZM147.5 39.5C140.1 39.5 135.5 34.4 135.5 25.3C135.5 16.2 140.1 11.1 147.5 11.1C154.9 11.1 159.5 16.2 159.5 25.3C159.5 34.5 154.8 39.5 147.5 39.5ZM147.5 14.3C142.8 14.3 139.9 17.7 139.9 25.4C139.9 33.1 142.8 36.4 147.5 36.4C152.2 36.4 155.1 33 155.1 25.4C155.1 17.8 152.2 14.3 147.5 14.3ZM198.1 11.7L189.5 39H186L180.6 22.5L175.1 39H171.7L162.4 11.7H166.8L172.4 29.1C172.9 30.6 173.4 32.5 173.7 34C173.9 32.6 174.4 30.7 175.1 28.9L178.9 17.4L177 11.6H181.2L186.7 29C187.2 30.6 187.7 32.6 187.9 34C188.2 32.4 188.6 30.3 189.1 28.9L194.3 11.6H198.1V11.7Z" fill="#11142D"/>
<g opacity="0.6">
<path opacity="0.6" d="M152.2 62.9H198.2V74.3H152.2V62.9Z" fill="#179F35"/>
<path opacity="0.6" d="M115.9 62.9H146.9V74.3H115.9V62.9Z" fill="#CC0B17"/>
<path opacity="0.6" d="M70.7998 62.9H115.9V74.3H70.7998V62.9Z" fill="#F29000"/>
<path opacity="0.6" d="M9.8999 62.9H63.0999V74.3H9.8999V62.9Z" fill="#E31C0A"/>
<path opacity="0.6" d="M63.1001 62.9H70.8001V74.3H63.1001V62.9Z" fill="#1F1B17"/>
<path opacity="0.6" d="M146.9 62.9H152.2V74.3H146.9V62.9Z" fill="#0077BC"/>
</g>
<g opacity="0.6">
<path opacity="0.6" d="M34.3999 36.7C32.0999 38.6 28.9999 39.6 24.9999 39.6C23.4999 39.6 21.6999 39.4 20.6999 39.2V50.3H13.1999V17H9.8999V11.7H17.6999L19.1999 15.3C20.9999 12.7 23.9999 11.2 27.5999 11.2C35.2999 11.2 38.6999 16.7 38.6999 25C38.6999 29.9 37.4999 34.1 34.3999 36.7ZM25.6999 16.7C24.0999 16.7 22.6999 17.3 21.7999 18.6C20.9999 19.7 20.6999 21.2 20.6999 23.3V34.3C21.7999 34.6 23.0999 34.8 24.3999 34.8C29.5999 34.8 31.1999 31.2 31.1999 25.3C31.0999 19.6 29.3999 16.7 25.6999 16.7ZM69.7999 38C68.6999 38.8 66.7999 39.4 64.7999 39.4C62.4999 39.4 60.5999 38.4 59.9999 36.5C58.4999 38.4 55.6999 39.5 52.5999 39.5C46.7999 39.5 42.8999 36.3 42.8999 30.4C42.8999 24.3 47.1999 21.2 53.5999 21.2C55.5999 21.2 57.6999 21.6 59.0999 22.1V21.4C59.0999 19.6 58.8999 18.5 57.9999 17.5C57.1999 16.5 55.5999 16 53.3999 16C50.7999 16 47.8999 16.7 45.1999 18V13C47.7999 11.8 51.1999 11.2 54.5999 11.2C58.8999 11.2 61.9999 12.1 64.0999 14.1C65.7999 15.7 66.4999 17.9 66.4999 21.1V32.8C66.4999 34 66.8999 34.5 67.7999 34.5C68.4999 34.5 69.4999 34.1 69.9999 33.8L69.7999 38ZM58.9999 26.2C58.1999 25.9 56.4999 25.5 55.0999 25.5C51.7999 25.5 50.2999 27.5 50.2999 30.1C50.2999 33.1 51.9999 34.7 54.5999 34.7C55.9999 34.7 57.0999 34.2 57.8999 33.4C58.5999 32.6 58.9999 31.4 58.9999 30V26.2ZM98.7999 38C98.7999 42.7 98.0999 45.3 96.1999 47.4C94.0999 49.8 90.5999 51 86.0999 51C82.3999 51 78.2999 50 75.5999 48.6L76.0999 43.1C78.6999 44.7 82.0999 45.6 85.0999 45.6C87.0999 45.6 88.7999 45.1 89.7999 44.1C90.8999 43 91.2999 41.3 91.2999 38.7V37.2C89.5999 38.6 87.0999 39.5 84.2999 39.5C81.0999 39.5 78.4999 38.6 76.7999 36.9C75.0999 35 74.3999 32.7 74.3999 29.6V11.7H81.8999V28.4C81.8999 30.2 82.0999 31.4 82.7999 32.4C83.4999 33.4 84.6999 33.9 86.3999 33.9C88.1999 33.9 89.3999 33.2 90.1999 32.2C91.0999 31 91.2999 29.5 91.2999 27.4V11.7H98.7999V38ZM129 39H124.7V22C124.7 19.2 124.5 17.7 123.3 16.3C122.3 15.2 120.7 14.6 118.6 14.6C116.2 14.6 114.5 15.3 113.3 16.7C112 18.2 111.6 20 111.6 23.2V39H107.3V14.9H104V11.7H110L110.7 15C112.4 12.5 115.2 11.2 119.2 11.2C122.4 11.2 125.2 12.3 126.8 14.1C128.5 16 128.9 18.5 128.9 21.5V39H129ZM147.5 39.5C140.1 39.5 135.5 34.4 135.5 25.3C135.5 16.2 140.1 11.1 147.5 11.1C154.9 11.1 159.5 16.2 159.5 25.3C159.5 34.5 154.8 39.5 147.5 39.5ZM147.5 14.3C142.8 14.3 139.9 17.7 139.9 25.4C139.9 33.1 142.8 36.4 147.5 36.4C152.2 36.4 155.1 33 155.1 25.4C155.1 17.8 152.2 14.3 147.5 14.3ZM198.1 11.7L189.5 39H186L180.6 22.5L175.1 39H171.7L162.4 11.7H166.8L172.4 29.1C172.9 30.6 173.4 32.5 173.7 34C173.9 32.6 174.4 30.7 175.1 28.9L178.9 17.4L177 11.6H181.2L186.7 29C187.2 30.6 187.7 32.6 187.9 34C188.2 32.4 188.6 30.3 189.1 28.9L194.3 11.6H198.1V11.7Z" fill="#11142D"/>
</g>
</svg>
