<svg width="88" height="22" viewBox="0 0 88 22" fill="none" xmlns="http://www.w3.org/2000/svg">
<path fill-rule="evenodd" clip-rule="evenodd" d="M27.9413 4.78967H32.7948C34.4193 4.78967 35.6428 5.21832 36.3326 6.02877C36.9606 6.76683 37.1686 7.82071 36.9514 9.162C36.4695 12.2278 34.6244 13.7749 31.4273 13.7749H29.8908C29.5589 13.7751 29.2765 14.0168 29.2251 14.3448L28.6957 17.7015C28.6443 18.0297 28.3615 18.2716 28.0293 18.2714H25.7122C25.5939 18.2716 25.4815 18.22 25.4045 18.1302C25.3275 18.0403 25.2937 17.9213 25.312 17.8044L27.2749 5.35883C27.3267 5.03093 27.6094 4.78946 27.9413 4.78967ZM30.472 11.0767C31.7587 11.0767 33.0893 11.0767 33.3548 9.33516C33.452 8.72342 33.3739 8.28058 33.1191 7.98251C32.6919 7.4829 31.8651 7.4829 30.9887 7.4829H30.653C30.454 7.4829 30.2845 7.62767 30.2535 7.82425L29.7397 11.0767H30.472Z" fill="#002685"/>
<path fill-rule="evenodd" clip-rule="evenodd" d="M44.9787 9.27901H47.3029C47.421 9.27897 47.5332 9.33072 47.6098 9.42058C47.6864 9.51044 47.7198 9.62938 47.7011 9.74597L46.4449 17.7007C46.3935 18.0289 46.1107 18.2708 45.7786 18.2706H43.685C43.5667 18.2704 43.4543 18.2185 43.3776 18.1284C43.3009 18.0383 43.2675 17.9191 43.2862 17.8022L43.3898 17.1564C43.3898 17.1564 42.2422 18.4871 40.1728 18.4871C38.9671 18.4871 37.9537 18.1393 37.2454 17.3047C36.4733 16.3971 36.1575 15.0955 36.3796 13.7344C36.8068 11.0057 39.0004 9.06042 41.5687 9.06042C42.6886 9.06042 43.8106 9.30455 44.3138 10.0348L44.4763 10.2704L44.5792 9.62036C44.6103 9.42378 44.7797 9.27901 44.9787 9.27901ZM41.441 16.0217C42.7851 16.0217 43.839 15.1303 44.0633 13.8025C44.1647 13.1595 44.0242 12.5762 43.6701 12.1582C43.3167 11.7444 42.7802 11.5251 42.1202 11.5251C40.7966 11.5251 39.725 12.4456 39.5157 13.762C39.4064 14.4078 39.5369 14.9877 39.8804 15.395C40.2267 15.8052 40.7661 16.0217 41.441 16.0217Z" fill="#002685"/>
<path d="M59.6812 9.27905H57.3456C57.122 9.27941 56.913 9.39016 56.7871 9.57499L53.5659 14.3199L52.2005 9.76022C52.1144 9.47467 51.8515 9.2792 51.5532 9.27905H49.2581C49.1274 9.27871 49.0046 9.34154 48.9284 9.44775C48.8522 9.55395 48.832 9.69043 48.8742 9.81415L51.4468 17.3637L49.0282 20.778C48.9406 20.9014 48.9292 21.0634 48.9986 21.1978C49.0681 21.3323 49.2068 21.4167 49.3582 21.4167H51.6909C51.912 21.417 52.1191 21.3088 52.2452 21.1271L60.0133 9.91422C60.0991 9.79057 60.1092 9.6295 60.0394 9.49613C59.9697 9.36275 59.8317 9.27912 59.6812 9.27905Z" fill="#002685"/>
<path fill-rule="evenodd" clip-rule="evenodd" d="M62.5594 4.78967H67.4136C69.038 4.78967 70.2608 5.21832 70.9499 6.02877C71.578 6.76683 71.7873 7.8207 71.5695 9.162C71.0869 12.2278 69.2424 13.7749 66.0446 13.7749H64.5089C64.177 13.7751 63.8946 14.0168 63.8432 14.3448L63.2861 17.8726C63.2502 18.1019 63.0527 18.2711 62.8206 18.2714H60.3296C60.2115 18.2714 60.0993 18.2197 60.0225 18.1299C59.9458 18.04 59.9123 17.9211 59.9308 17.8044L61.8937 5.35883C61.9454 5.03119 62.2277 4.78981 62.5594 4.78967ZM65.0908 11.0767C66.3782 11.0767 67.7088 11.0767 67.9735 9.33516C68.0708 8.72341 67.9934 8.28058 67.7386 7.98251C67.3114 7.4829 66.4839 7.4829 65.6082 7.4829H65.2725C65.0735 7.48265 64.9041 7.62763 64.8737 7.82425L64.3591 11.0767H65.0908Z" fill="#A0D7E7"/>
<path fill-rule="evenodd" clip-rule="evenodd" d="M79.5982 9.27901H81.921C82.0393 9.27887 82.1518 9.33046 82.2289 9.42024C82.306 9.51002 82.34 9.62902 82.322 9.74597L81.0651 17.7007C81.0138 18.0287 80.7314 18.2704 80.3995 18.2706H78.3066C78.188 18.2709 78.0753 18.2191 77.9983 18.1289C77.9212 18.0387 77.8876 17.9193 77.9064 17.8022L78.01 17.1564C78.01 17.1564 76.8624 18.4871 74.793 18.4871C73.5873 18.4871 72.5753 18.1393 71.8656 17.3047C71.0935 16.3971 70.7791 15.0955 71.0005 13.7344C71.4277 11.0057 73.6206 9.06042 76.1889 9.06042C77.3088 9.06042 78.4301 9.30455 78.9333 10.0348L79.0965 10.2704L79.1994 9.62036C79.2296 9.42358 79.3991 9.27846 79.5982 9.27901ZM76.0591 16.0217C77.4032 16.0217 78.4585 15.1303 78.6813 13.8025C78.7842 13.1595 78.6437 12.5762 78.2882 12.1582C77.9347 11.7444 77.3982 11.5251 76.7382 11.5251C75.4147 11.5251 74.3445 12.4456 74.1337 13.762C74.0258 14.4078 74.155 14.9877 74.4985 15.395C74.8448 15.8052 75.3856 16.0217 76.0591 16.0217Z" fill="#A0D7E7"/>
<path d="M84.6611 5.131L82.669 17.8044C82.6506 17.9211 82.6841 18.04 82.7608 18.1298C82.8375 18.2197 82.9497 18.2714 83.0679 18.2714H85.0706C85.4034 18.2714 85.6859 18.0301 85.737 17.7015L87.7014 5.25662C87.7198 5.13988 87.6863 5.0209 87.6096 4.93097C87.5329 4.84104 87.4207 4.78915 87.3025 4.78894H85.0599C84.8611 4.78964 84.6921 4.93456 84.6611 5.131Z" fill="#A0D7E7"/>
<path d="M5.15648 20.6899L5.52764 18.3324L4.70087 18.3132H0.75293L3.49654 0.916881C3.51342 0.80702 3.60823 0.726102 3.71938 0.726688H10.3762C12.5861 0.726688 14.1112 1.18656 14.9074 2.09424C15.2807 2.52004 15.5185 2.96501 15.6334 3.45469C15.7541 3.96849 15.7562 4.58237 15.6384 5.33107L15.6299 5.38572V5.86546L16.0032 6.07695C16.2882 6.22132 16.5443 6.41662 16.759 6.6532C17.0784 7.01727 17.2849 7.47998 17.3722 8.02856C17.4623 8.59275 17.4325 9.26411 17.2849 10.0242C17.1145 10.8985 16.8392 11.66 16.4673 12.2831C16.1392 12.8413 15.6981 13.3247 15.1722 13.7024C14.6782 14.053 14.0913 14.3191 13.4278 14.4895C12.7848 14.6569 12.0517 14.7414 11.2476 14.7414H10.7296C10.3591 14.7414 9.99932 14.8748 9.71687 15.114C9.43481 15.3557 9.24771 15.6897 9.18886 16.0564L9.14983 16.2686L8.49409 20.4238L8.46428 20.5764C8.45648 20.6246 8.44299 20.6488 8.42312 20.6651C8.40387 20.6808 8.37986 20.6896 8.35499 20.6899H5.15648Z" fill="#002685"/>
<path d="M16.3565 5.44104C16.3366 5.56807 16.3139 5.69794 16.2884 5.83136C15.4105 10.3385 12.4072 11.8956 8.57135 11.8956H6.61832C6.14923 11.8956 5.75394 12.2362 5.68084 12.6989L4.6809 19.0406L4.39774 20.8382C4.37491 20.9825 4.41639 21.1296 4.51126 21.2407C4.60612 21.3518 4.74487 21.4158 4.89097 21.4159H8.3549C8.7651 21.4159 9.11355 21.1178 9.17813 20.7133L9.21219 20.5373L9.86439 16.3985L9.90626 16.1714C9.97013 15.7654 10.3193 15.4674 10.7295 15.4674H11.2475C14.6036 15.4674 17.2308 14.1048 17.9987 10.1618C18.3195 8.51465 18.1534 7.1393 17.3046 6.17201C17.0356 5.87278 16.7143 5.62508 16.3565 5.44104V5.44104Z" fill="#A0D7E7"/>
<path d="M15.4385 5.07487C15.1582 4.99378 14.8731 4.9305 14.5848 4.88539C14.0151 4.79784 13.4394 4.75584 12.8631 4.75977H7.64554C7.23526 4.75946 6.88604 5.05836 6.82302 5.46377L5.71309 12.4938L5.68115 12.6989C5.7526 12.2365 6.15072 11.8953 6.61864 11.8956H8.57167C12.4075 11.8956 15.4108 10.3378 16.2887 5.83139C16.315 5.69797 16.337 5.5681 16.3568 5.44106C16.1252 5.31959 15.8838 5.21775 15.6351 5.13661C15.5699 5.11498 15.5044 5.0944 15.4385 5.07487Z" fill="#002685"/>
<path d="M6.82278 5.46381C6.88526 5.05821 7.23491 4.75924 7.64529 4.76052H12.8628C13.481 4.76052 14.0579 4.80097 14.5845 4.88613C14.9409 4.94213 15.2923 5.02589 15.6356 5.13665C15.8946 5.22252 16.1352 5.324 16.3573 5.4411C16.6185 3.77548 16.3552 2.64142 15.4546 1.61452C14.4617 0.484 12.6698 0 10.3768 0H3.72007C3.25168 0 2.85213 0.340645 2.77975 0.804065L0.0070368 18.3792C-0.0190995 18.5444 0.0283197 18.7127 0.136821 18.8399C0.245322 18.9671 0.404042 19.0404 0.57123 19.0406H4.68097L5.71284 12.4939L6.82278 5.46381Z" fill="#002685"/>
</svg>
